<?xml version="1.0" standalone="no"?>
<!DOCTYPE svg PUBLIC "-//W3C//DTD SVG 20010904//EN"
 "http://www.w3.org/TR/2001/REC-SVG-20010904/DTD/svg10.dtd">
<svg version="1.0" xmlns="http://www.w3.org/2000/svg"
 width="225.000000pt" height="225.000000pt" viewBox="0 0 225.000000 225.000000"
 preserveAspectRatio="xMidYMid meet">

<g transform="translate(0.000000,225.000000) scale(0.100000,-0.100000)"
fill="#000000" stroke="none">
<path d="M996 2100 c-338 -54 -606 -250 -750 -551 -61 -126 -87 -227 -93 -371
-9 -183 21 -327 99 -483 245 -490 843 -684 1325 -430 221 117 390 312 469 542
45 133 58 223 51 373 -11 251 -111 475 -289 646 -133 128 -272 206 -447 250
-109 28 -272 38 -365 24z m332 -120 c452 -108 742 -556 656 -1011 -17 -91 -61
-211 -98 -272 l-23 -38 -26 53 c-70 141 -199 268 -349 343 l-88 44 -62 -29
c-132 -62 -324 -55 -431 15 -24 15 -28 15 -90 -13 -95 -43 -173 -100 -249
-180 -63 -67 -138 -180 -153 -230 -9 -32 -24 -17 -67 70 -96 193 -121 403 -73
605 25 102 114 276 182 355 120 139 277 238 449 284 119 31 301 33 422 4z"/>
<path d="M1040 1845 c-107 -30 -191 -102 -239 -205 -22 -47 -26 -69 -26 -150
0 -84 3 -102 29 -157 35 -76 104 -144 184 -181 50 -23 69 -27 152 -27 83 1
102 4 152 28 227 110 285 398 117 582 -95 104 -238 146 -369 110z"/>
</g>
</svg>
